%TF.GenerationSoftware,KiCad,Pcbnew,(7.0.0)*%
%TF.CreationDate,2025-05-12T15:52:06+02:00*%
%TF.ProjectId,TP,54502e6b-6963-4616-945f-706362585858,rev?*%
%TF.SameCoordinates,Original*%
%TF.FileFunction,Soldermask,Top*%
%TF.FilePolarity,Negative*%
%FSLAX46Y46*%
G04 Gerber Fmt 4.6, Leading zero omitted, Abs format (unit mm)*
G04 Created by KiCad (PCBNEW (7.0.0)) date 2025-05-12 15:52:06*
%MOMM*%
%LPD*%
G01*
G04 APERTURE LIST*
G04 Aperture macros list*
%AMRoundRect*
0 Rectangle with rounded corners*
0 $1 Rounding radius*
0 $2 $3 $4 $5 $6 $7 $8 $9 X,Y pos of 4 corners*
0 Add a 4 corners polygon primitive as box body*
4,1,4,$2,$3,$4,$5,$6,$7,$8,$9,$2,$3,0*
0 Add four circle primitives for the rounded corners*
1,1,$1+$1,$2,$3*
1,1,$1+$1,$4,$5*
1,1,$1+$1,$6,$7*
1,1,$1+$1,$8,$9*
0 Add four rect primitives between the rounded corners*
20,1,$1+$1,$2,$3,$4,$5,0*
20,1,$1+$1,$4,$5,$6,$7,0*
20,1,$1+$1,$6,$7,$8,$9,0*
20,1,$1+$1,$8,$9,$2,$3,0*%
G04 Aperture macros list end*
%ADD10R,1.500000X1.500000*%
%ADD11C,1.500000*%
%ADD12C,2.340000*%
%ADD13R,2.400000X1.600000*%
%ADD14O,2.400000X1.600000*%
%ADD15O,1.600000X1.200000*%
%ADD16O,1.200000X1.200000*%
%ADD17RoundRect,0.250000X0.750000X-0.600000X0.750000X0.600000X-0.750000X0.600000X-0.750000X-0.600000X0*%
%ADD18O,2.000000X1.700000*%
%ADD19C,1.400000*%
%ADD20O,1.400000X1.400000*%
%ADD21R,1.800000X1.800000*%
%ADD22C,1.800000*%
%ADD23C,1.600000*%
%ADD24O,1.600000X1.600000*%
%ADD25C,5.600000*%
%ADD26RoundRect,0.250000X-0.600000X-0.750000X0.600000X-0.750000X0.600000X0.750000X-0.600000X0.750000X0*%
%ADD27O,1.700000X2.000000*%
%ADD28R,1.850000X1.850000*%
%ADD29C,1.850000*%
G04 APERTURE END LIST*
D10*
%TO.C,U3*%
X135799999Y-86039999D03*
D11*
X135800000Y-83500000D03*
X135800000Y-80960000D03*
%TD*%
D12*
%TO.C,RV1*%
X151500000Y-98200000D03*
X149000000Y-102000000D03*
X146500000Y-98200000D03*
%TD*%
D13*
%TO.C,U1*%
X145174999Y-86199999D03*
D14*
X145174999Y-88739999D03*
X145174999Y-91279999D03*
X145174999Y-93819999D03*
X152794999Y-93819999D03*
X152794999Y-91279999D03*
X152794999Y-88739999D03*
X152794999Y-86199999D03*
%TD*%
D15*
%TO.C,Q1*%
X103539999Y-79999999D03*
D16*
X102269999Y-78729999D03*
X100999999Y-79999999D03*
%TD*%
D17*
%TO.C,J3*%
X184500000Y-90000000D03*
D18*
X184499999Y-87499999D03*
%TD*%
D19*
%TO.C,R3*%
X100460000Y-87000000D03*
D20*
X105539999Y-86999999D03*
%TD*%
D19*
%TO.C,R8*%
X162000000Y-104460000D03*
D20*
X161999999Y-109539999D03*
%TD*%
D21*
%TO.C,D3*%
X150999999Y-79999999D03*
D22*
X153540000Y-80000000D03*
%TD*%
D21*
%TO.C,D2*%
X101999999Y-97999999D03*
D22*
X99460000Y-98000000D03*
%TD*%
D15*
%TO.C,Q2*%
X172999999Y-79999999D03*
D16*
X171729999Y-78729999D03*
X170459999Y-79999999D03*
%TD*%
D19*
%TO.C,R4*%
X169460000Y-86000000D03*
D20*
X174539999Y-85999999D03*
%TD*%
D23*
%TO.C,C3*%
X127750000Y-78000000D03*
D24*
X120249999Y-77999999D03*
%TD*%
D25*
%TO.C,H1*%
X86000000Y-79000000D03*
%TD*%
D19*
%TO.C,R2*%
X100000000Y-107540000D03*
D20*
X99999999Y-102459999D03*
%TD*%
D13*
%TO.C,U2*%
X120174999Y-82634999D03*
D14*
X120174999Y-85174999D03*
X120174999Y-87714999D03*
X120174999Y-90254999D03*
X120174999Y-92794999D03*
X120174999Y-95334999D03*
X120174999Y-97874999D03*
X127794999Y-97874999D03*
X127794999Y-95334999D03*
X127794999Y-92794999D03*
X127794999Y-90254999D03*
X127794999Y-87714999D03*
X127794999Y-85174999D03*
X127794999Y-82634999D03*
%TD*%
D23*
%TO.C,C2*%
X132250000Y-89000000D03*
D24*
X139749999Y-88999999D03*
%TD*%
D17*
%TO.C,J2*%
X184500000Y-100000000D03*
D18*
X184499999Y-97499999D03*
%TD*%
D19*
%TO.C,R1*%
X179000000Y-95540000D03*
D20*
X178999999Y-90459999D03*
%TD*%
D15*
%TO.C,Q3*%
X171539999Y-105999999D03*
D16*
X168999999Y-103459999D03*
X166459999Y-105999999D03*
%TD*%
D15*
%TO.C,Q4*%
X109539999Y-105999999D03*
D16*
X106999999Y-103459999D03*
X104459999Y-105999999D03*
%TD*%
D25*
%TO.C,H2*%
X185500000Y-78000000D03*
%TD*%
D19*
%TO.C,R6*%
X114000000Y-107540000D03*
D20*
X113999999Y-102459999D03*
%TD*%
D25*
%TO.C,H3*%
X85500000Y-108000000D03*
%TD*%
D26*
%TO.C,J1*%
X121500000Y-105000000D03*
D27*
X123999999Y-104999999D03*
%TD*%
D19*
%TO.C,R5*%
X176000000Y-109540000D03*
D20*
X175999999Y-104459999D03*
%TD*%
D28*
%TO.C,PS1*%
X137299999Y-105999999D03*
D29*
X139840000Y-106000000D03*
X144920000Y-106000000D03*
X147460000Y-106000000D03*
X150000000Y-106000000D03*
%TD*%
D23*
%TO.C,C1*%
X132250000Y-78000000D03*
D24*
X139749999Y-77999999D03*
%TD*%
D19*
%TO.C,R7*%
X145000000Y-82540000D03*
D20*
X144999999Y-77459999D03*
%TD*%
D25*
%TO.C,H4*%
X185500000Y-108000000D03*
%TD*%
D21*
%TO.C,D1*%
X162999999Y-97999999D03*
D22*
X160460000Y-98000000D03*
%TD*%
M02*
