%TF.GenerationSoftware,KiCad,Pcbnew,(7.0.0)*%
%TF.CreationDate,2025-05-12T15:52:06+02:00*%
%TF.ProjectId,TP,54502e6b-6963-4616-945f-706362585858,rev?*%
%TF.SameCoordinates,Original*%
%TF.FileFunction,Legend,Top*%
%TF.FilePolarity,Positive*%
%FSLAX46Y46*%
G04 Gerber Fmt 4.6, Leading zero omitted, Abs format (unit mm)*
G04 Created by KiCad (PCBNEW (7.0.0)) date 2025-05-12 15:52:06*
%MOMM*%
%LPD*%
G01*
G04 APERTURE LIST*
%ADD10C,0.150000*%
%ADD11C,0.120000*%
G04 APERTURE END LIST*
D10*
%TO.C,U3*%
X131607380Y-84261904D02*
X132416904Y-84261904D01*
X132416904Y-84261904D02*
X132512142Y-84214285D01*
X132512142Y-84214285D02*
X132559761Y-84166666D01*
X132559761Y-84166666D02*
X132607380Y-84071428D01*
X132607380Y-84071428D02*
X132607380Y-83880952D01*
X132607380Y-83880952D02*
X132559761Y-83785714D01*
X132559761Y-83785714D02*
X132512142Y-83738095D01*
X132512142Y-83738095D02*
X132416904Y-83690476D01*
X132416904Y-83690476D02*
X131607380Y-83690476D01*
X131607380Y-83309523D02*
X131607380Y-82690476D01*
X131607380Y-82690476D02*
X131988333Y-83023809D01*
X131988333Y-83023809D02*
X131988333Y-82880952D01*
X131988333Y-82880952D02*
X132035952Y-82785714D01*
X132035952Y-82785714D02*
X132083571Y-82738095D01*
X132083571Y-82738095D02*
X132178809Y-82690476D01*
X132178809Y-82690476D02*
X132416904Y-82690476D01*
X132416904Y-82690476D02*
X132512142Y-82738095D01*
X132512142Y-82738095D02*
X132559761Y-82785714D01*
X132559761Y-82785714D02*
X132607380Y-82880952D01*
X132607380Y-82880952D02*
X132607380Y-83166666D01*
X132607380Y-83166666D02*
X132559761Y-83261904D01*
X132559761Y-83261904D02*
X132512142Y-83309523D01*
%TO.C,RV1*%
X155517380Y-98795238D02*
X155041190Y-99128571D01*
X155517380Y-99366666D02*
X154517380Y-99366666D01*
X154517380Y-99366666D02*
X154517380Y-98985714D01*
X154517380Y-98985714D02*
X154565000Y-98890476D01*
X154565000Y-98890476D02*
X154612619Y-98842857D01*
X154612619Y-98842857D02*
X154707857Y-98795238D01*
X154707857Y-98795238D02*
X154850714Y-98795238D01*
X154850714Y-98795238D02*
X154945952Y-98842857D01*
X154945952Y-98842857D02*
X154993571Y-98890476D01*
X154993571Y-98890476D02*
X155041190Y-98985714D01*
X155041190Y-98985714D02*
X155041190Y-99366666D01*
X154517380Y-98509523D02*
X155517380Y-98176190D01*
X155517380Y-98176190D02*
X154517380Y-97842857D01*
X155517380Y-96985714D02*
X155517380Y-97557142D01*
X155517380Y-97271428D02*
X154517380Y-97271428D01*
X154517380Y-97271428D02*
X154660238Y-97366666D01*
X154660238Y-97366666D02*
X154755476Y-97461904D01*
X154755476Y-97461904D02*
X154803095Y-97557142D01*
%TO.C,U1*%
X148223095Y-83237380D02*
X148223095Y-84046904D01*
X148223095Y-84046904D02*
X148270714Y-84142142D01*
X148270714Y-84142142D02*
X148318333Y-84189761D01*
X148318333Y-84189761D02*
X148413571Y-84237380D01*
X148413571Y-84237380D02*
X148604047Y-84237380D01*
X148604047Y-84237380D02*
X148699285Y-84189761D01*
X148699285Y-84189761D02*
X148746904Y-84142142D01*
X148746904Y-84142142D02*
X148794523Y-84046904D01*
X148794523Y-84046904D02*
X148794523Y-83237380D01*
X149794523Y-84237380D02*
X149223095Y-84237380D01*
X149508809Y-84237380D02*
X149508809Y-83237380D01*
X149508809Y-83237380D02*
X149413571Y-83380238D01*
X149413571Y-83380238D02*
X149318333Y-83475476D01*
X149318333Y-83475476D02*
X149223095Y-83523095D01*
%TO.C,Q1*%
X97444761Y-80462619D02*
X97349523Y-80415000D01*
X97349523Y-80415000D02*
X97254285Y-80319761D01*
X97254285Y-80319761D02*
X97111428Y-80176904D01*
X97111428Y-80176904D02*
X97016190Y-80129285D01*
X97016190Y-80129285D02*
X96920952Y-80129285D01*
X96968571Y-80367380D02*
X96873333Y-80319761D01*
X96873333Y-80319761D02*
X96778095Y-80224523D01*
X96778095Y-80224523D02*
X96730476Y-80034047D01*
X96730476Y-80034047D02*
X96730476Y-79700714D01*
X96730476Y-79700714D02*
X96778095Y-79510238D01*
X96778095Y-79510238D02*
X96873333Y-79415000D01*
X96873333Y-79415000D02*
X96968571Y-79367380D01*
X96968571Y-79367380D02*
X97159047Y-79367380D01*
X97159047Y-79367380D02*
X97254285Y-79415000D01*
X97254285Y-79415000D02*
X97349523Y-79510238D01*
X97349523Y-79510238D02*
X97397142Y-79700714D01*
X97397142Y-79700714D02*
X97397142Y-80034047D01*
X97397142Y-80034047D02*
X97349523Y-80224523D01*
X97349523Y-80224523D02*
X97254285Y-80319761D01*
X97254285Y-80319761D02*
X97159047Y-80367380D01*
X97159047Y-80367380D02*
X96968571Y-80367380D01*
X98349523Y-80367380D02*
X97778095Y-80367380D01*
X98063809Y-80367380D02*
X98063809Y-79367380D01*
X98063809Y-79367380D02*
X97968571Y-79510238D01*
X97968571Y-79510238D02*
X97873333Y-79605476D01*
X97873333Y-79605476D02*
X97778095Y-79653095D01*
%TO.C,J3*%
X180317380Y-89083333D02*
X181031666Y-89083333D01*
X181031666Y-89083333D02*
X181174523Y-89130952D01*
X181174523Y-89130952D02*
X181269761Y-89226190D01*
X181269761Y-89226190D02*
X181317380Y-89369047D01*
X181317380Y-89369047D02*
X181317380Y-89464285D01*
X180317380Y-88702380D02*
X180317380Y-88083333D01*
X180317380Y-88083333D02*
X180698333Y-88416666D01*
X180698333Y-88416666D02*
X180698333Y-88273809D01*
X180698333Y-88273809D02*
X180745952Y-88178571D01*
X180745952Y-88178571D02*
X180793571Y-88130952D01*
X180793571Y-88130952D02*
X180888809Y-88083333D01*
X180888809Y-88083333D02*
X181126904Y-88083333D01*
X181126904Y-88083333D02*
X181222142Y-88130952D01*
X181222142Y-88130952D02*
X181269761Y-88178571D01*
X181269761Y-88178571D02*
X181317380Y-88273809D01*
X181317380Y-88273809D02*
X181317380Y-88559523D01*
X181317380Y-88559523D02*
X181269761Y-88654761D01*
X181269761Y-88654761D02*
X181222142Y-88702380D01*
%TO.C,R3*%
X102833333Y-85447380D02*
X102500000Y-84971190D01*
X102261905Y-85447380D02*
X102261905Y-84447380D01*
X102261905Y-84447380D02*
X102642857Y-84447380D01*
X102642857Y-84447380D02*
X102738095Y-84495000D01*
X102738095Y-84495000D02*
X102785714Y-84542619D01*
X102785714Y-84542619D02*
X102833333Y-84637857D01*
X102833333Y-84637857D02*
X102833333Y-84780714D01*
X102833333Y-84780714D02*
X102785714Y-84875952D01*
X102785714Y-84875952D02*
X102738095Y-84923571D01*
X102738095Y-84923571D02*
X102642857Y-84971190D01*
X102642857Y-84971190D02*
X102261905Y-84971190D01*
X103166667Y-84447380D02*
X103785714Y-84447380D01*
X103785714Y-84447380D02*
X103452381Y-84828333D01*
X103452381Y-84828333D02*
X103595238Y-84828333D01*
X103595238Y-84828333D02*
X103690476Y-84875952D01*
X103690476Y-84875952D02*
X103738095Y-84923571D01*
X103738095Y-84923571D02*
X103785714Y-85018809D01*
X103785714Y-85018809D02*
X103785714Y-85256904D01*
X103785714Y-85256904D02*
X103738095Y-85352142D01*
X103738095Y-85352142D02*
X103690476Y-85399761D01*
X103690476Y-85399761D02*
X103595238Y-85447380D01*
X103595238Y-85447380D02*
X103309524Y-85447380D01*
X103309524Y-85447380D02*
X103214286Y-85399761D01*
X103214286Y-85399761D02*
X103166667Y-85352142D01*
%TO.C,R8*%
X160267380Y-106966666D02*
X159791190Y-107299999D01*
X160267380Y-107538094D02*
X159267380Y-107538094D01*
X159267380Y-107538094D02*
X159267380Y-107157142D01*
X159267380Y-107157142D02*
X159315000Y-107061904D01*
X159315000Y-107061904D02*
X159362619Y-107014285D01*
X159362619Y-107014285D02*
X159457857Y-106966666D01*
X159457857Y-106966666D02*
X159600714Y-106966666D01*
X159600714Y-106966666D02*
X159695952Y-107014285D01*
X159695952Y-107014285D02*
X159743571Y-107061904D01*
X159743571Y-107061904D02*
X159791190Y-107157142D01*
X159791190Y-107157142D02*
X159791190Y-107538094D01*
X159695952Y-106395237D02*
X159648333Y-106490475D01*
X159648333Y-106490475D02*
X159600714Y-106538094D01*
X159600714Y-106538094D02*
X159505476Y-106585713D01*
X159505476Y-106585713D02*
X159457857Y-106585713D01*
X159457857Y-106585713D02*
X159362619Y-106538094D01*
X159362619Y-106538094D02*
X159315000Y-106490475D01*
X159315000Y-106490475D02*
X159267380Y-106395237D01*
X159267380Y-106395237D02*
X159267380Y-106204761D01*
X159267380Y-106204761D02*
X159315000Y-106109523D01*
X159315000Y-106109523D02*
X159362619Y-106061904D01*
X159362619Y-106061904D02*
X159457857Y-106014285D01*
X159457857Y-106014285D02*
X159505476Y-106014285D01*
X159505476Y-106014285D02*
X159600714Y-106061904D01*
X159600714Y-106061904D02*
X159648333Y-106109523D01*
X159648333Y-106109523D02*
X159695952Y-106204761D01*
X159695952Y-106204761D02*
X159695952Y-106395237D01*
X159695952Y-106395237D02*
X159743571Y-106490475D01*
X159743571Y-106490475D02*
X159791190Y-106538094D01*
X159791190Y-106538094D02*
X159886428Y-106585713D01*
X159886428Y-106585713D02*
X160076904Y-106585713D01*
X160076904Y-106585713D02*
X160172142Y-106538094D01*
X160172142Y-106538094D02*
X160219761Y-106490475D01*
X160219761Y-106490475D02*
X160267380Y-106395237D01*
X160267380Y-106395237D02*
X160267380Y-106204761D01*
X160267380Y-106204761D02*
X160219761Y-106109523D01*
X160219761Y-106109523D02*
X160172142Y-106061904D01*
X160172142Y-106061904D02*
X160076904Y-106014285D01*
X160076904Y-106014285D02*
X159886428Y-106014285D01*
X159886428Y-106014285D02*
X159791190Y-106061904D01*
X159791190Y-106061904D02*
X159743571Y-106109523D01*
X159743571Y-106109523D02*
X159695952Y-106204761D01*
%TO.C,D3*%
X151531905Y-77407380D02*
X151531905Y-76407380D01*
X151531905Y-76407380D02*
X151770000Y-76407380D01*
X151770000Y-76407380D02*
X151912857Y-76455000D01*
X151912857Y-76455000D02*
X152008095Y-76550238D01*
X152008095Y-76550238D02*
X152055714Y-76645476D01*
X152055714Y-76645476D02*
X152103333Y-76835952D01*
X152103333Y-76835952D02*
X152103333Y-76978809D01*
X152103333Y-76978809D02*
X152055714Y-77169285D01*
X152055714Y-77169285D02*
X152008095Y-77264523D01*
X152008095Y-77264523D02*
X151912857Y-77359761D01*
X151912857Y-77359761D02*
X151770000Y-77407380D01*
X151770000Y-77407380D02*
X151531905Y-77407380D01*
X152436667Y-76407380D02*
X153055714Y-76407380D01*
X153055714Y-76407380D02*
X152722381Y-76788333D01*
X152722381Y-76788333D02*
X152865238Y-76788333D01*
X152865238Y-76788333D02*
X152960476Y-76835952D01*
X152960476Y-76835952D02*
X153008095Y-76883571D01*
X153008095Y-76883571D02*
X153055714Y-76978809D01*
X153055714Y-76978809D02*
X153055714Y-77216904D01*
X153055714Y-77216904D02*
X153008095Y-77312142D01*
X153008095Y-77312142D02*
X152960476Y-77359761D01*
X152960476Y-77359761D02*
X152865238Y-77407380D01*
X152865238Y-77407380D02*
X152579524Y-77407380D01*
X152579524Y-77407380D02*
X152484286Y-77359761D01*
X152484286Y-77359761D02*
X152436667Y-77312142D01*
%TO.C,D2*%
X99991905Y-101327380D02*
X99991905Y-100327380D01*
X99991905Y-100327380D02*
X100230000Y-100327380D01*
X100230000Y-100327380D02*
X100372857Y-100375000D01*
X100372857Y-100375000D02*
X100468095Y-100470238D01*
X100468095Y-100470238D02*
X100515714Y-100565476D01*
X100515714Y-100565476D02*
X100563333Y-100755952D01*
X100563333Y-100755952D02*
X100563333Y-100898809D01*
X100563333Y-100898809D02*
X100515714Y-101089285D01*
X100515714Y-101089285D02*
X100468095Y-101184523D01*
X100468095Y-101184523D02*
X100372857Y-101279761D01*
X100372857Y-101279761D02*
X100230000Y-101327380D01*
X100230000Y-101327380D02*
X99991905Y-101327380D01*
X100944286Y-100422619D02*
X100991905Y-100375000D01*
X100991905Y-100375000D02*
X101087143Y-100327380D01*
X101087143Y-100327380D02*
X101325238Y-100327380D01*
X101325238Y-100327380D02*
X101420476Y-100375000D01*
X101420476Y-100375000D02*
X101468095Y-100422619D01*
X101468095Y-100422619D02*
X101515714Y-100517857D01*
X101515714Y-100517857D02*
X101515714Y-100613095D01*
X101515714Y-100613095D02*
X101468095Y-100755952D01*
X101468095Y-100755952D02*
X100896667Y-101327380D01*
X100896667Y-101327380D02*
X101515714Y-101327380D01*
%TO.C,Q2*%
X166904761Y-82462619D02*
X166809523Y-82415000D01*
X166809523Y-82415000D02*
X166714285Y-82319761D01*
X166714285Y-82319761D02*
X166571428Y-82176904D01*
X166571428Y-82176904D02*
X166476190Y-82129285D01*
X166476190Y-82129285D02*
X166380952Y-82129285D01*
X166428571Y-82367380D02*
X166333333Y-82319761D01*
X166333333Y-82319761D02*
X166238095Y-82224523D01*
X166238095Y-82224523D02*
X166190476Y-82034047D01*
X166190476Y-82034047D02*
X166190476Y-81700714D01*
X166190476Y-81700714D02*
X166238095Y-81510238D01*
X166238095Y-81510238D02*
X166333333Y-81415000D01*
X166333333Y-81415000D02*
X166428571Y-81367380D01*
X166428571Y-81367380D02*
X166619047Y-81367380D01*
X166619047Y-81367380D02*
X166714285Y-81415000D01*
X166714285Y-81415000D02*
X166809523Y-81510238D01*
X166809523Y-81510238D02*
X166857142Y-81700714D01*
X166857142Y-81700714D02*
X166857142Y-82034047D01*
X166857142Y-82034047D02*
X166809523Y-82224523D01*
X166809523Y-82224523D02*
X166714285Y-82319761D01*
X166714285Y-82319761D02*
X166619047Y-82367380D01*
X166619047Y-82367380D02*
X166428571Y-82367380D01*
X167238095Y-81462619D02*
X167285714Y-81415000D01*
X167285714Y-81415000D02*
X167380952Y-81367380D01*
X167380952Y-81367380D02*
X167619047Y-81367380D01*
X167619047Y-81367380D02*
X167714285Y-81415000D01*
X167714285Y-81415000D02*
X167761904Y-81462619D01*
X167761904Y-81462619D02*
X167809523Y-81557857D01*
X167809523Y-81557857D02*
X167809523Y-81653095D01*
X167809523Y-81653095D02*
X167761904Y-81795952D01*
X167761904Y-81795952D02*
X167190476Y-82367380D01*
X167190476Y-82367380D02*
X167809523Y-82367380D01*
%TO.C,R4*%
X171833333Y-84447380D02*
X171500000Y-83971190D01*
X171261905Y-84447380D02*
X171261905Y-83447380D01*
X171261905Y-83447380D02*
X171642857Y-83447380D01*
X171642857Y-83447380D02*
X171738095Y-83495000D01*
X171738095Y-83495000D02*
X171785714Y-83542619D01*
X171785714Y-83542619D02*
X171833333Y-83637857D01*
X171833333Y-83637857D02*
X171833333Y-83780714D01*
X171833333Y-83780714D02*
X171785714Y-83875952D01*
X171785714Y-83875952D02*
X171738095Y-83923571D01*
X171738095Y-83923571D02*
X171642857Y-83971190D01*
X171642857Y-83971190D02*
X171261905Y-83971190D01*
X172690476Y-83780714D02*
X172690476Y-84447380D01*
X172452381Y-83399761D02*
X172214286Y-84114047D01*
X172214286Y-84114047D02*
X172833333Y-84114047D01*
%TO.C,C3*%
X118272142Y-78166666D02*
X118319761Y-78214285D01*
X118319761Y-78214285D02*
X118367380Y-78357142D01*
X118367380Y-78357142D02*
X118367380Y-78452380D01*
X118367380Y-78452380D02*
X118319761Y-78595237D01*
X118319761Y-78595237D02*
X118224523Y-78690475D01*
X118224523Y-78690475D02*
X118129285Y-78738094D01*
X118129285Y-78738094D02*
X117938809Y-78785713D01*
X117938809Y-78785713D02*
X117795952Y-78785713D01*
X117795952Y-78785713D02*
X117605476Y-78738094D01*
X117605476Y-78738094D02*
X117510238Y-78690475D01*
X117510238Y-78690475D02*
X117415000Y-78595237D01*
X117415000Y-78595237D02*
X117367380Y-78452380D01*
X117367380Y-78452380D02*
X117367380Y-78357142D01*
X117367380Y-78357142D02*
X117415000Y-78214285D01*
X117415000Y-78214285D02*
X117462619Y-78166666D01*
X117367380Y-77833332D02*
X117367380Y-77214285D01*
X117367380Y-77214285D02*
X117748333Y-77547618D01*
X117748333Y-77547618D02*
X117748333Y-77404761D01*
X117748333Y-77404761D02*
X117795952Y-77309523D01*
X117795952Y-77309523D02*
X117843571Y-77261904D01*
X117843571Y-77261904D02*
X117938809Y-77214285D01*
X117938809Y-77214285D02*
X118176904Y-77214285D01*
X118176904Y-77214285D02*
X118272142Y-77261904D01*
X118272142Y-77261904D02*
X118319761Y-77309523D01*
X118319761Y-77309523D02*
X118367380Y-77404761D01*
X118367380Y-77404761D02*
X118367380Y-77690475D01*
X118367380Y-77690475D02*
X118319761Y-77785713D01*
X118319761Y-77785713D02*
X118272142Y-77833332D01*
%TO.C,H1*%
X85238095Y-75567380D02*
X85238095Y-74567380D01*
X85238095Y-75043571D02*
X85809523Y-75043571D01*
X85809523Y-75567380D02*
X85809523Y-74567380D01*
X86809523Y-75567380D02*
X86238095Y-75567380D01*
X86523809Y-75567380D02*
X86523809Y-74567380D01*
X86523809Y-74567380D02*
X86428571Y-74710238D01*
X86428571Y-74710238D02*
X86333333Y-74805476D01*
X86333333Y-74805476D02*
X86238095Y-74853095D01*
%TO.C,R2*%
X100367380Y-110166666D02*
X99891190Y-110499999D01*
X100367380Y-110738094D02*
X99367380Y-110738094D01*
X99367380Y-110738094D02*
X99367380Y-110357142D01*
X99367380Y-110357142D02*
X99415000Y-110261904D01*
X99415000Y-110261904D02*
X99462619Y-110214285D01*
X99462619Y-110214285D02*
X99557857Y-110166666D01*
X99557857Y-110166666D02*
X99700714Y-110166666D01*
X99700714Y-110166666D02*
X99795952Y-110214285D01*
X99795952Y-110214285D02*
X99843571Y-110261904D01*
X99843571Y-110261904D02*
X99891190Y-110357142D01*
X99891190Y-110357142D02*
X99891190Y-110738094D01*
X99462619Y-109785713D02*
X99415000Y-109738094D01*
X99415000Y-109738094D02*
X99367380Y-109642856D01*
X99367380Y-109642856D02*
X99367380Y-109404761D01*
X99367380Y-109404761D02*
X99415000Y-109309523D01*
X99415000Y-109309523D02*
X99462619Y-109261904D01*
X99462619Y-109261904D02*
X99557857Y-109214285D01*
X99557857Y-109214285D02*
X99653095Y-109214285D01*
X99653095Y-109214285D02*
X99795952Y-109261904D01*
X99795952Y-109261904D02*
X100367380Y-109833332D01*
X100367380Y-109833332D02*
X100367380Y-109214285D01*
%TO.C,U2*%
X116467380Y-91161904D02*
X117276904Y-91161904D01*
X117276904Y-91161904D02*
X117372142Y-91114285D01*
X117372142Y-91114285D02*
X117419761Y-91066666D01*
X117419761Y-91066666D02*
X117467380Y-90971428D01*
X117467380Y-90971428D02*
X117467380Y-90780952D01*
X117467380Y-90780952D02*
X117419761Y-90685714D01*
X117419761Y-90685714D02*
X117372142Y-90638095D01*
X117372142Y-90638095D02*
X117276904Y-90590476D01*
X117276904Y-90590476D02*
X116467380Y-90590476D01*
X116562619Y-90161904D02*
X116515000Y-90114285D01*
X116515000Y-90114285D02*
X116467380Y-90019047D01*
X116467380Y-90019047D02*
X116467380Y-89780952D01*
X116467380Y-89780952D02*
X116515000Y-89685714D01*
X116515000Y-89685714D02*
X116562619Y-89638095D01*
X116562619Y-89638095D02*
X116657857Y-89590476D01*
X116657857Y-89590476D02*
X116753095Y-89590476D01*
X116753095Y-89590476D02*
X116895952Y-89638095D01*
X116895952Y-89638095D02*
X117467380Y-90209523D01*
X117467380Y-90209523D02*
X117467380Y-89590476D01*
%TO.C,C2*%
X135833333Y-91972142D02*
X135785714Y-92019761D01*
X135785714Y-92019761D02*
X135642857Y-92067380D01*
X135642857Y-92067380D02*
X135547619Y-92067380D01*
X135547619Y-92067380D02*
X135404762Y-92019761D01*
X135404762Y-92019761D02*
X135309524Y-91924523D01*
X135309524Y-91924523D02*
X135261905Y-91829285D01*
X135261905Y-91829285D02*
X135214286Y-91638809D01*
X135214286Y-91638809D02*
X135214286Y-91495952D01*
X135214286Y-91495952D02*
X135261905Y-91305476D01*
X135261905Y-91305476D02*
X135309524Y-91210238D01*
X135309524Y-91210238D02*
X135404762Y-91115000D01*
X135404762Y-91115000D02*
X135547619Y-91067380D01*
X135547619Y-91067380D02*
X135642857Y-91067380D01*
X135642857Y-91067380D02*
X135785714Y-91115000D01*
X135785714Y-91115000D02*
X135833333Y-91162619D01*
X136214286Y-91162619D02*
X136261905Y-91115000D01*
X136261905Y-91115000D02*
X136357143Y-91067380D01*
X136357143Y-91067380D02*
X136595238Y-91067380D01*
X136595238Y-91067380D02*
X136690476Y-91115000D01*
X136690476Y-91115000D02*
X136738095Y-91162619D01*
X136738095Y-91162619D02*
X136785714Y-91257857D01*
X136785714Y-91257857D02*
X136785714Y-91353095D01*
X136785714Y-91353095D02*
X136738095Y-91495952D01*
X136738095Y-91495952D02*
X136166667Y-92067380D01*
X136166667Y-92067380D02*
X136785714Y-92067380D01*
%TO.C,J2*%
X180317380Y-99083333D02*
X181031666Y-99083333D01*
X181031666Y-99083333D02*
X181174523Y-99130952D01*
X181174523Y-99130952D02*
X181269761Y-99226190D01*
X181269761Y-99226190D02*
X181317380Y-99369047D01*
X181317380Y-99369047D02*
X181317380Y-99464285D01*
X180412619Y-98654761D02*
X180365000Y-98607142D01*
X180365000Y-98607142D02*
X180317380Y-98511904D01*
X180317380Y-98511904D02*
X180317380Y-98273809D01*
X180317380Y-98273809D02*
X180365000Y-98178571D01*
X180365000Y-98178571D02*
X180412619Y-98130952D01*
X180412619Y-98130952D02*
X180507857Y-98083333D01*
X180507857Y-98083333D02*
X180603095Y-98083333D01*
X180603095Y-98083333D02*
X180745952Y-98130952D01*
X180745952Y-98130952D02*
X181317380Y-98702380D01*
X181317380Y-98702380D02*
X181317380Y-98083333D01*
%TO.C,R1*%
X177447380Y-93166666D02*
X176971190Y-93499999D01*
X177447380Y-93738094D02*
X176447380Y-93738094D01*
X176447380Y-93738094D02*
X176447380Y-93357142D01*
X176447380Y-93357142D02*
X176495000Y-93261904D01*
X176495000Y-93261904D02*
X176542619Y-93214285D01*
X176542619Y-93214285D02*
X176637857Y-93166666D01*
X176637857Y-93166666D02*
X176780714Y-93166666D01*
X176780714Y-93166666D02*
X176875952Y-93214285D01*
X176875952Y-93214285D02*
X176923571Y-93261904D01*
X176923571Y-93261904D02*
X176971190Y-93357142D01*
X176971190Y-93357142D02*
X176971190Y-93738094D01*
X177447380Y-92214285D02*
X177447380Y-92785713D01*
X177447380Y-92499999D02*
X176447380Y-92499999D01*
X176447380Y-92499999D02*
X176590238Y-92595237D01*
X176590238Y-92595237D02*
X176685476Y-92690475D01*
X176685476Y-92690475D02*
X176733095Y-92785713D01*
%TO.C,Q3*%
X172904761Y-100462619D02*
X172809523Y-100415000D01*
X172809523Y-100415000D02*
X172714285Y-100319761D01*
X172714285Y-100319761D02*
X172571428Y-100176904D01*
X172571428Y-100176904D02*
X172476190Y-100129285D01*
X172476190Y-100129285D02*
X172380952Y-100129285D01*
X172428571Y-100367380D02*
X172333333Y-100319761D01*
X172333333Y-100319761D02*
X172238095Y-100224523D01*
X172238095Y-100224523D02*
X172190476Y-100034047D01*
X172190476Y-100034047D02*
X172190476Y-99700714D01*
X172190476Y-99700714D02*
X172238095Y-99510238D01*
X172238095Y-99510238D02*
X172333333Y-99415000D01*
X172333333Y-99415000D02*
X172428571Y-99367380D01*
X172428571Y-99367380D02*
X172619047Y-99367380D01*
X172619047Y-99367380D02*
X172714285Y-99415000D01*
X172714285Y-99415000D02*
X172809523Y-99510238D01*
X172809523Y-99510238D02*
X172857142Y-99700714D01*
X172857142Y-99700714D02*
X172857142Y-100034047D01*
X172857142Y-100034047D02*
X172809523Y-100224523D01*
X172809523Y-100224523D02*
X172714285Y-100319761D01*
X172714285Y-100319761D02*
X172619047Y-100367380D01*
X172619047Y-100367380D02*
X172428571Y-100367380D01*
X173190476Y-99367380D02*
X173809523Y-99367380D01*
X173809523Y-99367380D02*
X173476190Y-99748333D01*
X173476190Y-99748333D02*
X173619047Y-99748333D01*
X173619047Y-99748333D02*
X173714285Y-99795952D01*
X173714285Y-99795952D02*
X173761904Y-99843571D01*
X173761904Y-99843571D02*
X173809523Y-99938809D01*
X173809523Y-99938809D02*
X173809523Y-100176904D01*
X173809523Y-100176904D02*
X173761904Y-100272142D01*
X173761904Y-100272142D02*
X173714285Y-100319761D01*
X173714285Y-100319761D02*
X173619047Y-100367380D01*
X173619047Y-100367380D02*
X173333333Y-100367380D01*
X173333333Y-100367380D02*
X173238095Y-100319761D01*
X173238095Y-100319761D02*
X173190476Y-100272142D01*
%TO.C,Q4*%
X110904761Y-100462619D02*
X110809523Y-100415000D01*
X110809523Y-100415000D02*
X110714285Y-100319761D01*
X110714285Y-100319761D02*
X110571428Y-100176904D01*
X110571428Y-100176904D02*
X110476190Y-100129285D01*
X110476190Y-100129285D02*
X110380952Y-100129285D01*
X110428571Y-100367380D02*
X110333333Y-100319761D01*
X110333333Y-100319761D02*
X110238095Y-100224523D01*
X110238095Y-100224523D02*
X110190476Y-100034047D01*
X110190476Y-100034047D02*
X110190476Y-99700714D01*
X110190476Y-99700714D02*
X110238095Y-99510238D01*
X110238095Y-99510238D02*
X110333333Y-99415000D01*
X110333333Y-99415000D02*
X110428571Y-99367380D01*
X110428571Y-99367380D02*
X110619047Y-99367380D01*
X110619047Y-99367380D02*
X110714285Y-99415000D01*
X110714285Y-99415000D02*
X110809523Y-99510238D01*
X110809523Y-99510238D02*
X110857142Y-99700714D01*
X110857142Y-99700714D02*
X110857142Y-100034047D01*
X110857142Y-100034047D02*
X110809523Y-100224523D01*
X110809523Y-100224523D02*
X110714285Y-100319761D01*
X110714285Y-100319761D02*
X110619047Y-100367380D01*
X110619047Y-100367380D02*
X110428571Y-100367380D01*
X111714285Y-99700714D02*
X111714285Y-100367380D01*
X111476190Y-99319761D02*
X111238095Y-100034047D01*
X111238095Y-100034047D02*
X111857142Y-100034047D01*
%TO.C,H2*%
X180438095Y-79167380D02*
X180438095Y-78167380D01*
X180438095Y-78643571D02*
X181009523Y-78643571D01*
X181009523Y-79167380D02*
X181009523Y-78167380D01*
X181438095Y-78262619D02*
X181485714Y-78215000D01*
X181485714Y-78215000D02*
X181580952Y-78167380D01*
X181580952Y-78167380D02*
X181819047Y-78167380D01*
X181819047Y-78167380D02*
X181914285Y-78215000D01*
X181914285Y-78215000D02*
X181961904Y-78262619D01*
X181961904Y-78262619D02*
X182009523Y-78357857D01*
X182009523Y-78357857D02*
X182009523Y-78453095D01*
X182009523Y-78453095D02*
X181961904Y-78595952D01*
X181961904Y-78595952D02*
X181390476Y-79167380D01*
X181390476Y-79167380D02*
X182009523Y-79167380D01*
%TO.C,R6*%
X114367380Y-110166666D02*
X113891190Y-110499999D01*
X114367380Y-110738094D02*
X113367380Y-110738094D01*
X113367380Y-110738094D02*
X113367380Y-110357142D01*
X113367380Y-110357142D02*
X113415000Y-110261904D01*
X113415000Y-110261904D02*
X113462619Y-110214285D01*
X113462619Y-110214285D02*
X113557857Y-110166666D01*
X113557857Y-110166666D02*
X113700714Y-110166666D01*
X113700714Y-110166666D02*
X113795952Y-110214285D01*
X113795952Y-110214285D02*
X113843571Y-110261904D01*
X113843571Y-110261904D02*
X113891190Y-110357142D01*
X113891190Y-110357142D02*
X113891190Y-110738094D01*
X113367380Y-109309523D02*
X113367380Y-109499999D01*
X113367380Y-109499999D02*
X113415000Y-109595237D01*
X113415000Y-109595237D02*
X113462619Y-109642856D01*
X113462619Y-109642856D02*
X113605476Y-109738094D01*
X113605476Y-109738094D02*
X113795952Y-109785713D01*
X113795952Y-109785713D02*
X114176904Y-109785713D01*
X114176904Y-109785713D02*
X114272142Y-109738094D01*
X114272142Y-109738094D02*
X114319761Y-109690475D01*
X114319761Y-109690475D02*
X114367380Y-109595237D01*
X114367380Y-109595237D02*
X114367380Y-109404761D01*
X114367380Y-109404761D02*
X114319761Y-109309523D01*
X114319761Y-109309523D02*
X114272142Y-109261904D01*
X114272142Y-109261904D02*
X114176904Y-109214285D01*
X114176904Y-109214285D02*
X113938809Y-109214285D01*
X113938809Y-109214285D02*
X113843571Y-109261904D01*
X113843571Y-109261904D02*
X113795952Y-109309523D01*
X113795952Y-109309523D02*
X113748333Y-109404761D01*
X113748333Y-109404761D02*
X113748333Y-109595237D01*
X113748333Y-109595237D02*
X113795952Y-109690475D01*
X113795952Y-109690475D02*
X113843571Y-109738094D01*
X113843571Y-109738094D02*
X113938809Y-109785713D01*
%TO.C,H3*%
X84738095Y-104567380D02*
X84738095Y-103567380D01*
X84738095Y-104043571D02*
X85309523Y-104043571D01*
X85309523Y-104567380D02*
X85309523Y-103567380D01*
X85690476Y-103567380D02*
X86309523Y-103567380D01*
X86309523Y-103567380D02*
X85976190Y-103948333D01*
X85976190Y-103948333D02*
X86119047Y-103948333D01*
X86119047Y-103948333D02*
X86214285Y-103995952D01*
X86214285Y-103995952D02*
X86261904Y-104043571D01*
X86261904Y-104043571D02*
X86309523Y-104138809D01*
X86309523Y-104138809D02*
X86309523Y-104376904D01*
X86309523Y-104376904D02*
X86261904Y-104472142D01*
X86261904Y-104472142D02*
X86214285Y-104519761D01*
X86214285Y-104519761D02*
X86119047Y-104567380D01*
X86119047Y-104567380D02*
X85833333Y-104567380D01*
X85833333Y-104567380D02*
X85738095Y-104519761D01*
X85738095Y-104519761D02*
X85690476Y-104472142D01*
%TO.C,J1*%
X122416666Y-100817380D02*
X122416666Y-101531666D01*
X122416666Y-101531666D02*
X122369047Y-101674523D01*
X122369047Y-101674523D02*
X122273809Y-101769761D01*
X122273809Y-101769761D02*
X122130952Y-101817380D01*
X122130952Y-101817380D02*
X122035714Y-101817380D01*
X123416666Y-101817380D02*
X122845238Y-101817380D01*
X123130952Y-101817380D02*
X123130952Y-100817380D01*
X123130952Y-100817380D02*
X123035714Y-100960238D01*
X123035714Y-100960238D02*
X122940476Y-101055476D01*
X122940476Y-101055476D02*
X122845238Y-101103095D01*
%TO.C,R5*%
X178667380Y-107366666D02*
X178191190Y-107699999D01*
X178667380Y-107938094D02*
X177667380Y-107938094D01*
X177667380Y-107938094D02*
X177667380Y-107557142D01*
X177667380Y-107557142D02*
X177715000Y-107461904D01*
X177715000Y-107461904D02*
X177762619Y-107414285D01*
X177762619Y-107414285D02*
X177857857Y-107366666D01*
X177857857Y-107366666D02*
X178000714Y-107366666D01*
X178000714Y-107366666D02*
X178095952Y-107414285D01*
X178095952Y-107414285D02*
X178143571Y-107461904D01*
X178143571Y-107461904D02*
X178191190Y-107557142D01*
X178191190Y-107557142D02*
X178191190Y-107938094D01*
X177667380Y-106461904D02*
X177667380Y-106938094D01*
X177667380Y-106938094D02*
X178143571Y-106985713D01*
X178143571Y-106985713D02*
X178095952Y-106938094D01*
X178095952Y-106938094D02*
X178048333Y-106842856D01*
X178048333Y-106842856D02*
X178048333Y-106604761D01*
X178048333Y-106604761D02*
X178095952Y-106509523D01*
X178095952Y-106509523D02*
X178143571Y-106461904D01*
X178143571Y-106461904D02*
X178238809Y-106414285D01*
X178238809Y-106414285D02*
X178476904Y-106414285D01*
X178476904Y-106414285D02*
X178572142Y-106461904D01*
X178572142Y-106461904D02*
X178619761Y-106509523D01*
X178619761Y-106509523D02*
X178667380Y-106604761D01*
X178667380Y-106604761D02*
X178667380Y-106842856D01*
X178667380Y-106842856D02*
X178619761Y-106938094D01*
X178619761Y-106938094D02*
X178572142Y-106985713D01*
%TO.C,PS1*%
X134937380Y-108604285D02*
X133937380Y-108604285D01*
X133937380Y-108604285D02*
X133937380Y-108223333D01*
X133937380Y-108223333D02*
X133985000Y-108128095D01*
X133985000Y-108128095D02*
X134032619Y-108080476D01*
X134032619Y-108080476D02*
X134127857Y-108032857D01*
X134127857Y-108032857D02*
X134270714Y-108032857D01*
X134270714Y-108032857D02*
X134365952Y-108080476D01*
X134365952Y-108080476D02*
X134413571Y-108128095D01*
X134413571Y-108128095D02*
X134461190Y-108223333D01*
X134461190Y-108223333D02*
X134461190Y-108604285D01*
X134889761Y-107651904D02*
X134937380Y-107509047D01*
X134937380Y-107509047D02*
X134937380Y-107270952D01*
X134937380Y-107270952D02*
X134889761Y-107175714D01*
X134889761Y-107175714D02*
X134842142Y-107128095D01*
X134842142Y-107128095D02*
X134746904Y-107080476D01*
X134746904Y-107080476D02*
X134651666Y-107080476D01*
X134651666Y-107080476D02*
X134556428Y-107128095D01*
X134556428Y-107128095D02*
X134508809Y-107175714D01*
X134508809Y-107175714D02*
X134461190Y-107270952D01*
X134461190Y-107270952D02*
X134413571Y-107461428D01*
X134413571Y-107461428D02*
X134365952Y-107556666D01*
X134365952Y-107556666D02*
X134318333Y-107604285D01*
X134318333Y-107604285D02*
X134223095Y-107651904D01*
X134223095Y-107651904D02*
X134127857Y-107651904D01*
X134127857Y-107651904D02*
X134032619Y-107604285D01*
X134032619Y-107604285D02*
X133985000Y-107556666D01*
X133985000Y-107556666D02*
X133937380Y-107461428D01*
X133937380Y-107461428D02*
X133937380Y-107223333D01*
X133937380Y-107223333D02*
X133985000Y-107080476D01*
X134937380Y-106128095D02*
X134937380Y-106699523D01*
X134937380Y-106413809D02*
X133937380Y-106413809D01*
X133937380Y-106413809D02*
X134080238Y-106509047D01*
X134080238Y-106509047D02*
X134175476Y-106604285D01*
X134175476Y-106604285D02*
X134223095Y-106699523D01*
%TO.C,C1*%
X135833333Y-75852142D02*
X135785714Y-75899761D01*
X135785714Y-75899761D02*
X135642857Y-75947380D01*
X135642857Y-75947380D02*
X135547619Y-75947380D01*
X135547619Y-75947380D02*
X135404762Y-75899761D01*
X135404762Y-75899761D02*
X135309524Y-75804523D01*
X135309524Y-75804523D02*
X135261905Y-75709285D01*
X135261905Y-75709285D02*
X135214286Y-75518809D01*
X135214286Y-75518809D02*
X135214286Y-75375952D01*
X135214286Y-75375952D02*
X135261905Y-75185476D01*
X135261905Y-75185476D02*
X135309524Y-75090238D01*
X135309524Y-75090238D02*
X135404762Y-74995000D01*
X135404762Y-74995000D02*
X135547619Y-74947380D01*
X135547619Y-74947380D02*
X135642857Y-74947380D01*
X135642857Y-74947380D02*
X135785714Y-74995000D01*
X135785714Y-74995000D02*
X135833333Y-75042619D01*
X136785714Y-75947380D02*
X136214286Y-75947380D01*
X136500000Y-75947380D02*
X136500000Y-74947380D01*
X136500000Y-74947380D02*
X136404762Y-75090238D01*
X136404762Y-75090238D02*
X136309524Y-75185476D01*
X136309524Y-75185476D02*
X136214286Y-75233095D01*
%TO.C,R7*%
X143447380Y-80166666D02*
X142971190Y-80499999D01*
X143447380Y-80738094D02*
X142447380Y-80738094D01*
X142447380Y-80738094D02*
X142447380Y-80357142D01*
X142447380Y-80357142D02*
X142495000Y-80261904D01*
X142495000Y-80261904D02*
X142542619Y-80214285D01*
X142542619Y-80214285D02*
X142637857Y-80166666D01*
X142637857Y-80166666D02*
X142780714Y-80166666D01*
X142780714Y-80166666D02*
X142875952Y-80214285D01*
X142875952Y-80214285D02*
X142923571Y-80261904D01*
X142923571Y-80261904D02*
X142971190Y-80357142D01*
X142971190Y-80357142D02*
X142971190Y-80738094D01*
X142447380Y-79833332D02*
X142447380Y-79166666D01*
X142447380Y-79166666D02*
X143447380Y-79595237D01*
%TO.C,H4*%
X184738095Y-104567380D02*
X184738095Y-103567380D01*
X184738095Y-104043571D02*
X185309523Y-104043571D01*
X185309523Y-104567380D02*
X185309523Y-103567380D01*
X186214285Y-103900714D02*
X186214285Y-104567380D01*
X185976190Y-103519761D02*
X185738095Y-104234047D01*
X185738095Y-104234047D02*
X186357142Y-104234047D01*
%TO.C,D1*%
X160991905Y-101327380D02*
X160991905Y-100327380D01*
X160991905Y-100327380D02*
X161230000Y-100327380D01*
X161230000Y-100327380D02*
X161372857Y-100375000D01*
X161372857Y-100375000D02*
X161468095Y-100470238D01*
X161468095Y-100470238D02*
X161515714Y-100565476D01*
X161515714Y-100565476D02*
X161563333Y-100755952D01*
X161563333Y-100755952D02*
X161563333Y-100898809D01*
X161563333Y-100898809D02*
X161515714Y-101089285D01*
X161515714Y-101089285D02*
X161468095Y-101184523D01*
X161468095Y-101184523D02*
X161372857Y-101279761D01*
X161372857Y-101279761D02*
X161230000Y-101327380D01*
X161230000Y-101327380D02*
X160991905Y-101327380D01*
X162515714Y-101327380D02*
X161944286Y-101327380D01*
X162230000Y-101327380D02*
X162230000Y-100327380D01*
X162230000Y-100327380D02*
X162134762Y-100470238D01*
X162134762Y-100470238D02*
X162039524Y-100565476D01*
X162039524Y-100565476D02*
X161944286Y-100613095D01*
D11*
%TO.C,U3*%
X137650000Y-85300000D02*
X137650000Y-81700000D01*
X134701193Y-81143600D02*
G75*
G03*
X133200000Y-83500000I1098807J-2356400D01*
G01*
X133200001Y-83500000D02*
G75*
G03*
X134701193Y-85856399I2599999J0D01*
G01*
X136922795Y-85824183D02*
G75*
G03*
X137649999Y-85299999I-1122795J2324183D01*
G01*
X137649999Y-81700001D02*
G75*
G03*
X136922795Y-81175817I-1849999J-1799999D01*
G01*
%TO.C,RV1*%
X154021000Y-98079000D02*
X152926000Y-98079000D01*
X154021000Y-98079000D02*
X154021000Y-103120000D01*
X150074000Y-98079000D02*
X147925000Y-98079000D01*
X150074000Y-98079000D02*
X147925000Y-98079000D01*
X145075000Y-98079000D02*
X143980000Y-98079000D01*
X143980000Y-98079000D02*
X143980000Y-103120000D01*
X150620000Y-99437000D02*
X150620000Y-103120000D01*
X147380000Y-99437000D02*
X147380000Y-103120000D01*
X154021000Y-103120000D02*
X150072000Y-103120000D01*
X150620000Y-103120000D02*
X150072000Y-103120000D01*
X147927000Y-103120000D02*
X147380000Y-103120000D01*
X147927000Y-103120000D02*
X143980000Y-103120000D01*
%TO.C,U1*%
X146735000Y-84870000D02*
X146735000Y-95150000D01*
X146735000Y-95150000D02*
X151235000Y-95150000D01*
X147985000Y-84870000D02*
X146735000Y-84870000D01*
X151235000Y-84870000D02*
X149985000Y-84870000D01*
X151235000Y-95150000D02*
X151235000Y-84870000D01*
X147985000Y-84870000D02*
G75*
G03*
X149985000Y-84870000I1000000J0D01*
G01*
%TO.C,Q1*%
X105754448Y-82494499D02*
X104842281Y-81582331D01*
X104764499Y-83484448D02*
X105754448Y-82494499D01*
X103852331Y-82572281D02*
X104764499Y-83484448D01*
X104842150Y-81582544D02*
G75*
G03*
X103852331Y-82572281I-2572150J1582544D01*
G01*
%TO.C,J3*%
X181750000Y-92850000D02*
X183000000Y-92850000D01*
X182040000Y-92560000D02*
X188010000Y-92560000D01*
X188010000Y-92560000D02*
X188010000Y-84940000D01*
X182050000Y-92550000D02*
X182800000Y-92550000D01*
X182800000Y-92550000D02*
X182800000Y-90750000D01*
X184300000Y-92550000D02*
X184300000Y-91800000D01*
X184300000Y-91800000D02*
X187250000Y-91800000D01*
X187250000Y-91800000D02*
X187250000Y-88750000D01*
X181750000Y-91600000D02*
X181750000Y-92850000D01*
X182050000Y-90750000D02*
X182050000Y-92550000D01*
X182800000Y-90750000D02*
X182050000Y-90750000D01*
X182050000Y-89250000D02*
X182800000Y-89250000D01*
X182800000Y-89250000D02*
X182800000Y-88250000D01*
X182050000Y-88250000D02*
X182050000Y-89250000D01*
X182800000Y-88250000D02*
X182050000Y-88250000D01*
X182050000Y-86750000D02*
X182800000Y-86750000D01*
X182800000Y-86750000D02*
X182800000Y-84950000D01*
X184300000Y-85700000D02*
X187250000Y-85700000D01*
X187250000Y-85700000D02*
X187250000Y-88750000D01*
X182050000Y-84950000D02*
X182050000Y-86750000D01*
X182800000Y-84950000D02*
X182050000Y-84950000D01*
X184300000Y-84950000D02*
X184300000Y-85700000D01*
X182040000Y-84940000D02*
X182040000Y-92560000D01*
X188010000Y-84940000D02*
X182040000Y-84940000D01*
%TO.C,R3*%
X101080000Y-86080000D02*
X104920000Y-86080000D01*
X101080000Y-87920000D02*
X104920000Y-87920000D01*
%TO.C,R8*%
X162920000Y-105080000D02*
X162920000Y-108920000D01*
X161080000Y-105080000D02*
X161080000Y-108920000D01*
%TO.C,D3*%
X150710000Y-78764000D02*
X150710000Y-78920000D01*
X150710000Y-81080000D02*
X150710000Y-81236000D01*
X153942334Y-78921392D02*
G75*
G03*
X150710001Y-78764485I-1672334J-1078608D01*
G01*
X153311129Y-78920164D02*
G75*
G03*
X151229040Y-78920001I-1041129J-1079836D01*
G01*
X151229040Y-81079999D02*
G75*
G03*
X153311129Y-81079836I1040960J1079999D01*
G01*
X150710001Y-81235515D02*
G75*
G03*
X153942334Y-81078608I1559999J1235515D01*
G01*
%TO.C,D2*%
X102290000Y-99236000D02*
X102290000Y-99080000D01*
X102290000Y-96920000D02*
X102290000Y-96764000D01*
X99057666Y-99078608D02*
G75*
G03*
X102289999Y-99235515I1672334J1078608D01*
G01*
X99688871Y-99079836D02*
G75*
G03*
X101770960Y-99079999I1041129J1079836D01*
G01*
X101770960Y-96920001D02*
G75*
G03*
X99688871Y-96920164I-1040960J-1079999D01*
G01*
X102289999Y-96764485D02*
G75*
G03*
X99057666Y-96921392I-1559999J-1235515D01*
G01*
%TO.C,Q2*%
X175214448Y-82494499D02*
X174302281Y-81582331D01*
X174224499Y-83484448D02*
X175214448Y-82494499D01*
X173312331Y-82572281D02*
X174224499Y-83484448D01*
X174302150Y-81582544D02*
G75*
G03*
X173312331Y-82572281I-2572150J1582544D01*
G01*
%TO.C,R4*%
X170080000Y-85080000D02*
X173920000Y-85080000D01*
X170080000Y-86920000D02*
X173920000Y-86920000D01*
%TO.C,C3*%
X126710000Y-78000000D02*
X126020000Y-78000000D01*
X126020000Y-79420000D02*
X126020000Y-76580000D01*
X126020000Y-76580000D02*
X121980000Y-76580000D01*
X121980000Y-79420000D02*
X126020000Y-79420000D01*
X121980000Y-76580000D02*
X121980000Y-79420000D01*
X121290000Y-78000000D02*
X121980000Y-78000000D01*
%TO.C,R2*%
X99080000Y-106920000D02*
X99080000Y-103080000D01*
X100920000Y-106920000D02*
X100920000Y-103080000D01*
%TO.C,U2*%
X121735000Y-81305000D02*
X121735000Y-99205000D01*
X121735000Y-99205000D02*
X126235000Y-99205000D01*
X122985000Y-81305000D02*
X121735000Y-81305000D01*
X126235000Y-81305000D02*
X124985000Y-81305000D01*
X126235000Y-99205000D02*
X126235000Y-81305000D01*
X122985000Y-81305000D02*
G75*
G03*
X124985000Y-81305000I1000000J0D01*
G01*
%TO.C,C2*%
X133290000Y-89000000D02*
X133980000Y-89000000D01*
X133980000Y-87580000D02*
X133980000Y-90420000D01*
X133980000Y-90420000D02*
X138020000Y-90420000D01*
X138020000Y-87580000D02*
X133980000Y-87580000D01*
X138020000Y-90420000D02*
X138020000Y-87580000D01*
X138710000Y-89000000D02*
X138020000Y-89000000D01*
%TO.C,J2*%
X181750000Y-102850000D02*
X183000000Y-102850000D01*
X182040000Y-102560000D02*
X188010000Y-102560000D01*
X188010000Y-102560000D02*
X188010000Y-94940000D01*
X182050000Y-102550000D02*
X182800000Y-102550000D01*
X182800000Y-102550000D02*
X182800000Y-100750000D01*
X184300000Y-102550000D02*
X184300000Y-101800000D01*
X184300000Y-101800000D02*
X187250000Y-101800000D01*
X187250000Y-101800000D02*
X187250000Y-98750000D01*
X181750000Y-101600000D02*
X181750000Y-102850000D01*
X182050000Y-100750000D02*
X182050000Y-102550000D01*
X182800000Y-100750000D02*
X182050000Y-100750000D01*
X182050000Y-99250000D02*
X182800000Y-99250000D01*
X182800000Y-99250000D02*
X182800000Y-98250000D01*
X182050000Y-98250000D02*
X182050000Y-99250000D01*
X182800000Y-98250000D02*
X182050000Y-98250000D01*
X182050000Y-96750000D02*
X182800000Y-96750000D01*
X182800000Y-96750000D02*
X182800000Y-94950000D01*
X184300000Y-95700000D02*
X187250000Y-95700000D01*
X187250000Y-95700000D02*
X187250000Y-98750000D01*
X182050000Y-94950000D02*
X182050000Y-96750000D01*
X182800000Y-94950000D02*
X182050000Y-94950000D01*
X184300000Y-94950000D02*
X184300000Y-95700000D01*
X182040000Y-94940000D02*
X182040000Y-102560000D01*
X188010000Y-94940000D02*
X182040000Y-94940000D01*
%TO.C,R1*%
X178080000Y-94920000D02*
X178080000Y-91080000D01*
X179920000Y-94920000D02*
X179920000Y-91080000D01*
%TO.C,Q3*%
X173665856Y-109888039D02*
X172774902Y-108997084D01*
X172888039Y-110665856D02*
X173665856Y-109888039D01*
X171997084Y-109774902D02*
X172888039Y-110665856D01*
X172774673Y-108997371D02*
G75*
G03*
X171997084Y-109774901I-3774673J2997371D01*
G01*
%TO.C,Q4*%
X111665856Y-109888039D02*
X110774902Y-108997084D01*
X110888039Y-110665856D02*
X111665856Y-109888039D01*
X109997084Y-109774902D02*
X110888039Y-110665856D01*
X110774673Y-108997371D02*
G75*
G03*
X109997084Y-109774901I-3774673J2997371D01*
G01*
%TO.C,R6*%
X113080000Y-106920000D02*
X113080000Y-103080000D01*
X114920000Y-106920000D02*
X114920000Y-103080000D01*
%TO.C,J1*%
X118650000Y-102250000D02*
X118650000Y-103500000D01*
X118940000Y-102540000D02*
X118940000Y-108510000D01*
X118940000Y-108510000D02*
X126560000Y-108510000D01*
X118950000Y-102550000D02*
X118950000Y-103300000D01*
X118950000Y-103300000D02*
X120750000Y-103300000D01*
X118950000Y-104800000D02*
X119700000Y-104800000D01*
X119700000Y-104800000D02*
X119700000Y-107750000D01*
X119700000Y-107750000D02*
X122750000Y-107750000D01*
X119900000Y-102250000D02*
X118650000Y-102250000D01*
X120750000Y-102550000D02*
X118950000Y-102550000D01*
X120750000Y-103300000D02*
X120750000Y-102550000D01*
X122250000Y-102550000D02*
X122250000Y-103300000D01*
X122250000Y-103300000D02*
X123250000Y-103300000D01*
X123250000Y-102550000D02*
X122250000Y-102550000D01*
X123250000Y-103300000D02*
X123250000Y-102550000D01*
X124750000Y-102550000D02*
X124750000Y-103300000D01*
X124750000Y-103300000D02*
X126550000Y-103300000D01*
X125800000Y-104800000D02*
X125800000Y-107750000D01*
X125800000Y-107750000D02*
X122750000Y-107750000D01*
X126550000Y-102550000D02*
X124750000Y-102550000D01*
X126550000Y-103300000D02*
X126550000Y-102550000D01*
X126550000Y-104800000D02*
X125800000Y-104800000D01*
X126560000Y-102540000D02*
X118940000Y-102540000D01*
X126560000Y-108510000D02*
X126560000Y-102540000D01*
%TO.C,R5*%
X175080000Y-108920000D02*
X175080000Y-105080000D01*
X176920000Y-108920000D02*
X176920000Y-105080000D01*
%TO.C,PS1*%
X135360000Y-110600000D02*
X136610000Y-110600000D01*
X135660000Y-110300000D02*
X154680000Y-110300000D01*
X154680000Y-110300000D02*
X154680000Y-104490000D01*
X135360000Y-109350000D02*
X135360000Y-110600000D01*
X135660000Y-104490000D02*
X135660000Y-110300000D01*
X154680000Y-104490000D02*
X135660000Y-104490000D01*
%TO.C,C1*%
X133290000Y-78000000D02*
X133980000Y-78000000D01*
X133980000Y-76580000D02*
X133980000Y-79420000D01*
X133980000Y-79420000D02*
X138020000Y-79420000D01*
X138020000Y-76580000D02*
X133980000Y-76580000D01*
X138020000Y-79420000D02*
X138020000Y-76580000D01*
X138710000Y-78000000D02*
X138020000Y-78000000D01*
%TO.C,R7*%
X144080000Y-81920000D02*
X144080000Y-78080000D01*
X145920000Y-81920000D02*
X145920000Y-78080000D01*
%TO.C,D1*%
X163290000Y-99236000D02*
X163290000Y-99080000D01*
X163290000Y-96920000D02*
X163290000Y-96764000D01*
X160057666Y-99078608D02*
G75*
G03*
X163289999Y-99235515I1672334J1078608D01*
G01*
X160688871Y-99079836D02*
G75*
G03*
X162770960Y-99079999I1041129J1079836D01*
G01*
X162770960Y-96920001D02*
G75*
G03*
X160688871Y-96920164I-1040960J-1079999D01*
G01*
X163289999Y-96764485D02*
G75*
G03*
X160057666Y-96921392I-1559999J-1235515D01*
G01*
%TD*%
M02*
