M48
; DRILL file {KiCad (7.0.0)} date Mon May 12 15:50:34 2025
; FORMAT={-:-/ absolute / metric / decimal}
; #@! TF.CreationDate,2025-05-12T15:50:34+02:00
; #@! TF.GenerationSoftware,Kicad,Pcbnew,(7.0.0)
; #@! TF.FileFunction,Plated,1,2,PTH
FMAT,2
METRIC
; #@! TA.AperFunction,Plated,PTH,ComponentDrill
T1C0.700
; #@! TA.AperFunction,Plated,PTH,ViaDrill
T2C0.800
; #@! TA.AperFunction,Plated,PTH,ComponentDrill
T3C0.800
; #@! TA.AperFunction,Plated,PTH,ComponentDrill
T4C0.850
; #@! TA.AperFunction,Plated,PTH,ComponentDrill
T5C0.900
; #@! TA.AperFunction,Plated,PTH,ComponentDrill
T6C1.000
; #@! TA.AperFunction,Plated,PTH,ComponentDrill
T7C1.300
; #@! TA.AperFunction,Plated,PTH,ComponentDrill
T8C3.200
%
G90
G05
T1
X100.0Y-102.46
X100.0Y-107.54
X100.46Y-87.0
X101.0Y-80.0
X102.27Y-78.73
X103.54Y-80.0
X104.46Y-106.0
X105.54Y-87.0
X107.0Y-103.46
X109.54Y-106.0
X114.0Y-102.46
X114.0Y-107.54
X145.0Y-77.46
X145.0Y-82.54
X162.0Y-104.46
X162.0Y-109.54
X166.46Y-106.0
X169.0Y-103.46
X169.46Y-86.0
X170.46Y-80.0
X171.54Y-106.0
X171.73Y-78.73
X173.0Y-80.0
X174.54Y-86.0
X176.0Y-104.46
X176.0Y-109.54
X179.0Y-90.46
X179.0Y-95.54
T2
X155.7Y-95.975
X174.0Y-90.5
T3
X120.175Y-82.635
X120.175Y-85.175
X120.175Y-87.715
X120.175Y-90.255
X120.175Y-92.795
X120.175Y-95.335
X120.175Y-97.875
X120.25Y-78.0
X127.75Y-78.0
X127.795Y-82.635
X127.795Y-85.175
X127.795Y-87.715
X127.795Y-90.255
X127.795Y-92.795
X127.795Y-95.335
X127.795Y-97.875
X132.25Y-78.0
X132.25Y-89.0
X135.8Y-80.96
X135.8Y-83.5
X135.8Y-86.04
X139.75Y-78.0
X139.75Y-89.0
X145.175Y-86.2
X145.175Y-88.74
X145.175Y-91.28
X145.175Y-93.82
X152.795Y-86.2
X152.795Y-88.74
X152.795Y-91.28
X152.795Y-93.82
T4
X137.3Y-106.0
X139.84Y-106.0
X144.92Y-106.0
X147.46Y-106.0
X150.0Y-106.0
T5
X99.46Y-98.0
X102.0Y-98.0
X151.0Y-80.0
X153.54Y-80.0
X160.46Y-98.0
X163.0Y-98.0
T6
X121.5Y-105.0
X124.0Y-105.0
X184.5Y-87.5
X184.5Y-90.0
X184.5Y-97.5
X184.5Y-100.0
T7
X146.5Y-98.2
X149.0Y-102.0
X151.5Y-98.2
T8
X85.5Y-108.0
X86.0Y-79.0
X185.5Y-78.0
X185.5Y-108.0
T0
M30
