%TF.GenerationSoftware,KiCad,Pcbnew,8.0.8*%
%TF.CreationDate,2025-05-05T21:02:48+02:00*%
%TF.ProjectId,Alarm Control System,416c6172-6d20-4436-9f6e-74726f6c2053,1.0*%
%TF.SameCoordinates,Original*%
%TF.FileFunction,Soldermask,Top*%
%TF.FilePolarity,Negative*%
%FSLAX46Y46*%
G04 Gerber Fmt 4.6, Leading zero omitted, Abs format (unit mm)*
G04 Created by KiCad (PCBNEW 8.0.8) date 2025-05-05 21:02:48*
%MOMM*%
%LPD*%
G01*
G04 APERTURE LIST*
G04 Aperture macros list*
%AMRoundRect*
0 Rectangle with rounded corners*
0 $1 Rounding radius*
0 $2 $3 $4 $5 $6 $7 $8 $9 X,Y pos of 4 corners*
0 Add a 4 corners polygon primitive as box body*
4,1,4,$2,$3,$4,$5,$6,$7,$8,$9,$2,$3,0*
0 Add four circle primitives for the rounded corners*
1,1,$1+$1,$2,$3*
1,1,$1+$1,$4,$5*
1,1,$1+$1,$6,$7*
1,1,$1+$1,$8,$9*
0 Add four rect primitives between the rounded corners*
20,1,$1+$1,$2,$3,$4,$5,0*
20,1,$1+$1,$4,$5,$6,$7,0*
20,1,$1+$1,$6,$7,$8,$9,0*
20,1,$1+$1,$8,$9,$2,$3,0*%
G04 Aperture macros list end*
%ADD10RoundRect,0.140000X-0.140000X-0.170000X0.140000X-0.170000X0.140000X0.170000X-0.140000X0.170000X0*%
%ADD11RoundRect,0.135000X0.135000X0.185000X-0.135000X0.185000X-0.135000X-0.185000X0.135000X-0.185000X0*%
%ADD12RoundRect,0.135000X-0.135000X-0.185000X0.135000X-0.185000X0.135000X0.185000X-0.135000X0.185000X0*%
%ADD13RoundRect,0.218750X-0.218750X-0.256250X0.218750X-0.256250X0.218750X0.256250X-0.218750X0.256250X0*%
%ADD14RoundRect,0.140000X0.170000X-0.140000X0.170000X0.140000X-0.170000X0.140000X-0.170000X-0.140000X0*%
%ADD15C,1.600000*%
%ADD16C,2.000000*%
%ADD17RoundRect,0.140000X0.140000X0.170000X-0.140000X0.170000X-0.140000X-0.170000X0.140000X-0.170000X0*%
%ADD18RoundRect,0.250000X-0.600000X-0.725000X0.600000X-0.725000X0.600000X0.725000X-0.600000X0.725000X0*%
%ADD19O,1.700000X1.950000*%
%ADD20C,3.200000*%
%ADD21R,1.700000X1.700000*%
%ADD22O,1.700000X1.700000*%
%ADD23C,1.900000*%
%ADD24RoundRect,0.170000X-0.680000X-0.680000X0.680000X-0.680000X0.680000X0.680000X-0.680000X0.680000X0*%
%ADD25C,1.700000*%
%ADD26C,6.400000*%
%ADD27RoundRect,0.375000X-0.375000X0.625000X-0.375000X-0.625000X0.375000X-0.625000X0.375000X0.625000X0*%
%ADD28RoundRect,0.500000X-1.400000X0.500000X-1.400000X-0.500000X1.400000X-0.500000X1.400000X0.500000X0*%
%ADD29RoundRect,0.100000X-0.325000X0.100000X-0.325000X-0.100000X0.325000X-0.100000X0.325000X0.100000X0*%
%ADD30RoundRect,0.140000X-0.170000X0.140000X-0.170000X-0.140000X0.170000X-0.140000X0.170000X0.140000X0*%
%ADD31RoundRect,0.250000X-0.725000X0.600000X-0.725000X-0.600000X0.725000X-0.600000X0.725000X0.600000X0*%
%ADD32O,1.950000X1.700000*%
%ADD33RoundRect,0.250000X-1.250000X-0.550000X1.250000X-0.550000X1.250000X0.550000X-1.250000X0.550000X0*%
%ADD34RoundRect,0.250000X0.600000X0.750000X-0.600000X0.750000X-0.600000X-0.750000X0.600000X-0.750000X0*%
%ADD35O,1.700000X2.000000*%
G04 APERTURE END LIST*
D10*
%TO.C,C801*%
X102720000Y-72700000D03*
X103680000Y-72700000D03*
%TD*%
D11*
%TO.C,R801*%
X103710000Y-76400000D03*
X102690000Y-76400000D03*
%TD*%
D12*
%TO.C,R403*%
X105285300Y-56516100D03*
X106305300Y-56516100D03*
%TD*%
D13*
%TO.C,D402*%
X102210300Y-56516100D03*
X103785300Y-56516100D03*
%TD*%
D14*
%TO.C,C403*%
X117517800Y-65516100D03*
X117517800Y-64556100D03*
%TD*%
D15*
%TO.C,U401*%
X119977800Y-57266100D03*
X122517800Y-57266100D03*
X125057800Y-57266100D03*
%TD*%
D16*
%TO.C,SW901*%
X114017800Y-121516100D03*
X114017800Y-116516100D03*
X114017800Y-119016100D03*
X99517800Y-121516100D03*
X99517800Y-116516100D03*
%TD*%
D17*
%TO.C,C904*%
X117017800Y-119016100D03*
X116057800Y-119016100D03*
%TD*%
D13*
%TO.C,D403*%
X102210300Y-59516100D03*
X103785300Y-59516100D03*
%TD*%
D11*
%TO.C,R902*%
X117017800Y-116016100D03*
X115997800Y-116016100D03*
%TD*%
D10*
%TO.C,C903*%
X96557800Y-117516100D03*
X97517800Y-117516100D03*
%TD*%
D13*
%TO.C,D502*%
X124425000Y-75500000D03*
X126000000Y-75500000D03*
%TD*%
D12*
%TO.C,R905*%
X96517800Y-119016100D03*
X97537800Y-119016100D03*
%TD*%
D18*
%TO.C,J3*%
X168500000Y-56000000D03*
D19*
X171000000Y-56000000D03*
X173500000Y-56000000D03*
%TD*%
D11*
%TO.C,R504*%
X135500000Y-66500000D03*
X134480000Y-66500000D03*
%TD*%
%TO.C,R802*%
X103710000Y-74600000D03*
X102690000Y-74600000D03*
%TD*%
D13*
%TO.C,D504*%
X124425000Y-78500000D03*
X126000000Y-78500000D03*
%TD*%
D20*
%TO.C,U501*%
X148257800Y-77246100D03*
X181277800Y-129316100D03*
X196517800Y-78516100D03*
D21*
X140637800Y-81056100D03*
D22*
X143177800Y-81056100D03*
X140637800Y-83596100D03*
X143177800Y-83596100D03*
X140637800Y-86136100D03*
X143177800Y-86136100D03*
X140637800Y-88676100D03*
X143177800Y-88676100D03*
X140637800Y-91216100D03*
X143177800Y-91216100D03*
X140637800Y-93756100D03*
X143177800Y-93756100D03*
X140637800Y-96296100D03*
X143177800Y-96296100D03*
X140637800Y-98836100D03*
X143177800Y-98836100D03*
X140637800Y-101376100D03*
X143177800Y-101376100D03*
X140637800Y-103916100D03*
X143177800Y-103916100D03*
X140637800Y-106456100D03*
X143177800Y-106456100D03*
X140637800Y-108996100D03*
X143177800Y-108996100D03*
X140637800Y-111536100D03*
X143177800Y-111536100D03*
X140637800Y-114076100D03*
X143177800Y-114076100D03*
X140637800Y-116616100D03*
X143177800Y-116616100D03*
X140637800Y-119156100D03*
X143177800Y-119156100D03*
X140637800Y-121696100D03*
X143177800Y-121696100D03*
X140637800Y-124236100D03*
X143177800Y-124236100D03*
X140637800Y-126776100D03*
X143177800Y-126776100D03*
D21*
X201597800Y-81066100D03*
D22*
X204137800Y-81066100D03*
X201597800Y-83596100D03*
X204137800Y-83596100D03*
X201597800Y-86136100D03*
X204137800Y-86136100D03*
X201597800Y-88676100D03*
X204137800Y-88676100D03*
X201597800Y-91216100D03*
X204137800Y-91216100D03*
X201597800Y-93756100D03*
X204137800Y-93756100D03*
X201597800Y-96296100D03*
X204137800Y-96296100D03*
X201597800Y-98836100D03*
X204137800Y-98836100D03*
X201597800Y-101376100D03*
X204137800Y-101376100D03*
X201597800Y-103916100D03*
X204137800Y-103916100D03*
X201597800Y-106456100D03*
X204137800Y-106456100D03*
X201597800Y-108996100D03*
X204137800Y-108996100D03*
X201597800Y-111536100D03*
X204137800Y-111536100D03*
X201597800Y-114076100D03*
X204137800Y-114076100D03*
X201597800Y-116616100D03*
X204137800Y-116616100D03*
X201597800Y-119156100D03*
X204137800Y-119156100D03*
X201597800Y-121696100D03*
X204137800Y-121696100D03*
X201597800Y-124236100D03*
X204137800Y-124236100D03*
X201597800Y-126776100D03*
X204137800Y-126776100D03*
%TD*%
D23*
%TO.C,J801*%
X94467800Y-81666100D03*
X94467800Y-105366100D03*
X118167800Y-81666100D03*
X118167800Y-105366100D03*
D24*
X102507800Y-80886100D03*
D25*
X105047800Y-80886100D03*
X107587800Y-80886100D03*
X110127800Y-80886100D03*
%TD*%
D26*
%TO.C,H102*%
X83730300Y-53016100D03*
%TD*%
D12*
%TO.C,R402*%
X105285300Y-53516100D03*
X106305300Y-53516100D03*
%TD*%
D11*
%TO.C,R903*%
X117017800Y-120516100D03*
X115997800Y-120516100D03*
%TD*%
D27*
%TO.C,U402*%
X124317800Y-61016100D03*
X122017800Y-61016100D03*
D28*
X122017800Y-67316100D03*
D27*
X119717800Y-61016100D03*
%TD*%
D11*
%TO.C,R901*%
X117077800Y-122016100D03*
X116057800Y-122016100D03*
%TD*%
D29*
%TO.C,D801*%
X113405000Y-75670000D03*
X113405000Y-75020000D03*
X113405000Y-74370000D03*
X111555000Y-74370000D03*
X111555000Y-75670000D03*
%TD*%
D26*
%TO.C,H103*%
X83730300Y-134516100D03*
%TD*%
D30*
%TO.C,C401*%
X117517800Y-62556100D03*
X117517800Y-63516100D03*
%TD*%
D17*
%TO.C,C404*%
X86017800Y-66016100D03*
X85057800Y-66016100D03*
%TD*%
D26*
%TO.C,H107*%
X141517800Y-53516100D03*
%TD*%
D17*
%TO.C,C901*%
X117017800Y-123516100D03*
X116057800Y-123516100D03*
%TD*%
%TO.C,C902*%
X117017800Y-114516100D03*
X116057800Y-114516100D03*
%TD*%
D13*
%TO.C,D505*%
X124425000Y-81500000D03*
X126000000Y-81500000D03*
%TD*%
D26*
%TO.C,H104*%
X203517800Y-53051600D03*
%TD*%
D31*
%TO.C,J2*%
X201000000Y-64500000D03*
D32*
X201000000Y-67000000D03*
X201000000Y-69500000D03*
%TD*%
D29*
%TO.C,D901*%
X125417800Y-119300000D03*
X125417800Y-118650000D03*
X125417800Y-118000000D03*
X123567800Y-118000000D03*
X123567800Y-119300000D03*
%TD*%
D13*
%TO.C,D401*%
X102230300Y-53516100D03*
X103805300Y-53516100D03*
%TD*%
D11*
%TO.C,R503*%
X135500000Y-70500000D03*
X134480000Y-70500000D03*
%TD*%
%TO.C,R906*%
X97517800Y-120516100D03*
X96497800Y-120516100D03*
%TD*%
%TO.C,R501*%
X135510000Y-68500000D03*
X134490000Y-68500000D03*
%TD*%
D33*
%TO.C,C402*%
X94095300Y-67016100D03*
X98495300Y-67016100D03*
%TD*%
D34*
%TO.C,J401*%
X97545300Y-60466100D03*
D35*
X95045300Y-60466100D03*
%TD*%
D12*
%TO.C,R404*%
X105285300Y-59516100D03*
X106305300Y-59516100D03*
%TD*%
D26*
%TO.C,H106*%
X141517800Y-134516100D03*
%TD*%
D11*
%TO.C,R904*%
X117017800Y-117516100D03*
X115997800Y-117516100D03*
%TD*%
D26*
%TO.C,H108*%
X203517800Y-134516100D03*
%TD*%
M02*
