M48
; DRILL file {KiCad 8.0.8} date 2025-05-05T21:02:44+0200
; FORMAT={-:-/ absolute / inch / decimal}
; #@! TF.CreationDate,2025-05-05T21:02:44+02:00
; #@! TF.GenerationSoftware,Kicad,Pcbnew,8.0.8
; #@! TF.FileFunction,Plated,1,2,PTH
FMAT,2
INCH
; #@! TA.AperFunction,Plated,PTH,ViaDrill
T1C0.0315
; #@! TA.AperFunction,Plated,PTH,ComponentDrill
T2C0.0374
; #@! TA.AperFunction,Plated,PTH,ComponentDrill
T3C0.0394
; #@! TA.AperFunction,Plated,PTH,ComponentDrill
T4C0.1260
%
G90
G05
T1
X3.728Y-4.6862
X4.2614Y-2.9043
X4.2614Y-3.0701
X4.3602Y-2.4902
X4.4346Y-3.0697
X4.5437Y-2.4
X4.6161Y-4.4094
X4.6516Y-5.0551
X4.7362Y-4.7919
X4.7922Y-4.6531
X4.9409Y-4.7717
X6.4646Y-2.876
X6.842Y-2.9623
X7.9528Y-2.9646
T2
X6.6339Y-2.2047
X6.7323Y-2.2047
X6.8307Y-2.2047
X7.9134Y-2.5394
X7.9134Y-2.6378
X7.9134Y-2.7362
T3
X3.7419Y-2.3806
X3.8404Y-2.3806
X3.918Y-4.5872
X3.918Y-4.7841
X4.0357Y-3.1845
X4.1357Y-3.1845
X4.2357Y-3.1845
X4.3357Y-3.1845
X4.4889Y-4.5872
X4.4889Y-4.6857
X4.4889Y-4.7841
X4.7235Y-2.2546
X4.8235Y-2.2546
X4.9235Y-2.2546
X5.5369Y-3.1912
X5.5369Y-3.2912
X5.5369Y-3.3912
X5.5369Y-3.4912
X5.5369Y-3.5912
X5.5369Y-3.6912
X5.5369Y-3.7912
X5.5369Y-3.8912
X5.5369Y-3.9912
X5.5369Y-4.0912
X5.5369Y-4.1912
X5.5369Y-4.2912
X5.5369Y-4.3912
X5.5369Y-4.4912
X5.5369Y-4.5912
X5.5369Y-4.6912
X5.5369Y-4.7912
X5.5369Y-4.8912
X5.5369Y-4.9912
X5.6369Y-3.1912
X5.6369Y-3.2912
X5.6369Y-3.3912
X5.6369Y-3.4912
X5.6369Y-3.5912
X5.6369Y-3.6912
X5.6369Y-3.7912
X5.6369Y-3.8912
X5.6369Y-3.9912
X5.6369Y-4.0912
X5.6369Y-4.1912
X5.6369Y-4.2912
X5.6369Y-4.3912
X5.6369Y-4.4912
X5.6369Y-4.5912
X5.6369Y-4.6912
X5.6369Y-4.7912
X5.6369Y-4.8912
X5.6369Y-4.9912
X7.9369Y-3.1916
X7.9369Y-3.2912
X7.9369Y-3.3912
X7.9369Y-3.4912
X7.9369Y-3.5912
X7.9369Y-3.6912
X7.9369Y-3.7912
X7.9369Y-3.8912
X7.9369Y-3.9912
X7.9369Y-4.0912
X7.9369Y-4.1912
X7.9369Y-4.2912
X7.9369Y-4.3912
X7.9369Y-4.4912
X7.9369Y-4.5912
X7.9369Y-4.6912
X7.9369Y-4.7912
X7.9369Y-4.8912
X7.9369Y-4.9912
X8.0369Y-3.1916
X8.0369Y-3.2912
X8.0369Y-3.3912
X8.0369Y-3.4912
X8.0369Y-3.5912
X8.0369Y-3.6912
X8.0369Y-3.7912
X8.0369Y-3.8912
X8.0369Y-3.9912
X8.0369Y-4.0912
X8.0369Y-4.1912
X8.0369Y-4.2912
X8.0369Y-4.3912
X8.0369Y-4.4912
X8.0369Y-4.5912
X8.0369Y-4.6912
X8.0369Y-4.7912
X8.0369Y-4.8912
X8.0369Y-4.9912
T4
X3.2965Y-2.0872
X3.2965Y-5.2959
X5.5716Y-2.1069
X5.5716Y-5.2959
X8.0125Y-2.0886
X8.0125Y-5.2959
M30
